PERFORMER "Dennis Ferrer"
TITLE "Essential Mix (2008-09-27) [TMB]"
FILE "Essential Mix - 2008-09-27 - Dennis Ferrer.mp3" MP3
  TRACK 01 AUDIO
    PERFORMER "Essential Mix"
    TITLE "Intro"
    INDEX 01 00:00:00
  TRACK 02 AUDIO
    PERFORMER "DJ Yellow & Astrid Suryanto"
    TITLE "Light On Me (Satoshie Tomiie Remix)"
    INDEX 01 01:29:15
  TRACK 03 AUDIO
    PERFORMER "Anto Vitale"
    TITLE "Majico"
    INDEX 01 05:28:00
  TRACK 04 AUDIO
    PERFORMER "Gel Abril"
    TITLE "Spells Of Yoruba"
    INDEX 01 11:43:15
  TRACK 05 AUDIO
    PERFORMER "Patrice Bäumel"
    TITLE "Roar"
    INDEX 01 14:48:14
  TRACK 06 AUDIO
    PERFORMER "SIS"
    TITLE "Trompeta"
    INDEX 01 18:51:15
  TRACK 07 AUDIO
    PERFORMER "Sebo K"
    TITLE "Diva"
    INDEX 01 23:33:01
  TRACK 08 AUDIO
    PERFORMER "SWV"
    TITLE "Rain (Bams Main Vox)"
    INDEX 01 29:12:20
  TRACK 09 AUDIO
    PERFORMER "Osunlade"
    TITLE "Momma's Groove (Nomumbah's Remix)"
    INDEX 01 33:42:22
  TRACK 10 AUDIO
    PERFORMER "Chaim"
    TITLE "Africomania"
    INDEX 01 40:11:01
  TRACK 11 AUDIO
    PERFORMER "Lukeshara"
    TITLE "Glowind"
    INDEX 01 44:05:15
  TRACK 12 AUDIO
    PERFORMER "Roberto Rodriguez"
    TITLE "Singularity"
    INDEX 01 50:18:20
  TRACK 13 AUDIO
    PERFORMER "Trolle & Siebenhaar"
    TITLE "Sweet Dogs"
    INDEX 01 55:25:26
  TRACK 14 AUDIO
    PERFORMER "Mike Shannon"
    TITLE "Dr. X (X Flex Mix)"
    INDEX 01 64:18:04
  TRACK 15 AUDIO
    PERFORMER "Boddhi Satva"
    TITLE "Punch Koko"
    INDEX 01 68:18:00
  TRACK 16 AUDIO
    PERFORMER "Soundstream"
    TITLE "Soul Train"
    INDEX 01 71:29:05
  TRACK 17 AUDIO
    PERFORMER "Sia"
    TITLE "The Girl You Lost (Sander Van Doorn Remix Ross Alexander's SVD Re-edit)"
    INDEX 01 76:44:01
  TRACK 18 AUDIO
    PERFORMER "DJ Sneak"
    TITLE "Dry Rub (Dub)"
    INDEX 01 81:45:22
  TRACK 19 AUDIO
    PERFORMER "Gorge"
    TITLE "Bambossa"
    INDEX 01 87:28:18
  TRACK 20 AUDIO
    PERFORMER "Brass Construction"
    TITLE "Movin'"
    INDEX 01 92:17:03
  TRACK 21 AUDIO
    PERFORMER "Johnny D"
    TITLE "Requiem For a Dream"
    INDEX 01 99:48:28
  TRACK 22 AUDIO
    PERFORMER "Peter van Hoesen"
    TITLE "Casual Care"
    INDEX 01 105:18:15
  TRACK 23 AUDIO
    PERFORMER "Rhythm and Sound feat. Paul St. Hillaire"
    TITLE "Free For All (Soundstream Remix)"
    INDEX 01 110:06:22
  TRACK 24 AUDIO
    PERFORMER "Ricky L"
    TITLE "Nothing But"
    INDEX 01 114:50:28
  TRACK 25 AUDIO
    PERFORMER "Soundstream"
    TITLE "Love Jam"
    INDEX 01 116:28:05
  TRACK 26 AUDIO
    PERFORMER "Kenny Dope Gonzales"
    TITLE "Blackout (Beats)"
    INDEX 01 119:24:27
